<?xml version="1.0" encoding="UTF-8"?>
<!DOCTYPE svg PUBLIC "-//W3C//DTD SVG 1.1//EN" "http://www.w3.org/Graphics/SVG/1.1/DTD/svg11.dtd">
<svg version="1.1" xmlns="http://www.w3.org/2000/svg" xmlns:xlink="http://www.w3.org/1999/xlink" x="0" y="0" width="461" height="142" viewBox="0, 0, 461, 142">
  <g id="Layer_1">
    <path d="M-0,0.267 L460.63,0.267 L460.63,142 L-0,142 z" fill="#04183B"/>
    <path d="M180.426,88.888 C180.426,76.943 174.636,68.61 164.867,68.61 C154.247,68.61 149.294,78.618 149.294,88.888 C149.294,100.825 155.089,109.152 164.867,109.152 C175.484,109.152 180.426,99.146 180.426,88.888 z M187.673,88.65 C187.673,101.787 177.535,111.324 164.867,111.324 C151.953,111.324 142.056,101.68 142.056,89.12 C142.056,75.976 152.193,66.438 164.867,66.438 C177.78,66.438 187.673,76.095 187.673,88.65" fill="#FFFFFE"/>
    <path d="M319.689,88.888 C319.689,76.943 313.892,68.61 304.123,68.61 C293.503,68.61 288.556,78.618 288.556,88.888 C288.556,100.825 294.349,109.152 304.123,109.152 C314.739,109.152 319.689,99.146 319.689,88.888 z M326.929,88.65 C326.929,101.787 316.791,111.324 304.123,111.324 C291.207,111.324 281.313,101.68 281.313,89.12 C281.313,75.976 291.451,66.438 304.123,66.438 C317.034,66.438 326.929,76.095 326.929,88.65" fill="#FFFFFE"/>
    <path d="M354.564,96.115 C352.027,92.496 351.06,91.176 347.926,91.176 L344.544,91.176 L344.544,105.898 C344.544,107.105 345.029,107.699 346.359,107.945 L351.304,109.03 L351.304,110.607 L331.875,110.607 L331.875,109.03 L336.342,107.945 C337.666,107.59 338.15,107.105 338.15,105.898 L338.15,71.867 C338.15,70.658 337.666,70.178 336.342,69.819 L331.875,68.731 L331.875,67.157 L350.82,67.157 C354.807,67.157 357.58,67.524 359.873,68.362 C364.58,70.178 367.232,74.65 367.232,78.862 C367.232,84.18 363.251,88.65 356.613,90.201 L356.613,90.443 C357.943,91.058 358.666,91.898 363.372,98.061 L369.285,105.898 C370.128,107.105 371.216,107.822 372.544,108.07 L376.888,109.03 L376.888,110.607 L366.511,110.607 C365.304,110.607 364.701,110.238 363.615,108.785 L354.564,96.115 z M344.544,89.12 L349.976,89.12 C358.184,89.12 359.996,83.941 359.996,78.985 C359.996,75.244 358.304,71.744 354.443,70.059 C352.392,69.211 350.459,69.211 347.805,69.211 L344.544,69.211 L344.544,89.12" fill="#FFFFFE"/>
    <path d="M269.488,82.002 L271.3,82.002 L271.3,96.486 L269.488,96.486 L268.401,92.144 C268.037,90.568 267.074,89.97 265.626,89.97 L255.125,89.97 L255.125,105.898 C255.125,107.105 255.609,107.699 256.937,107.945 L261.884,109.03 L261.884,110.607 L242.458,110.607 L242.458,109.03 L246.923,107.945 C248.25,107.59 248.734,107.105 248.734,105.898 L248.734,71.867 C248.734,70.658 248.25,70.178 246.923,69.819 L242.458,68.731 L242.458,67.157 L275.28,67.157 L275.28,78.029 L273.47,78.029 L271.419,71.504 C270.937,69.819 270.212,69.211 268.763,69.211 L255.125,69.211 L255.125,87.914 L265.626,87.914 C267.074,87.914 267.917,87.318 268.401,85.741 L269.488,82.002" fill="#FFFFFE"/>
    <path d="M393.058,69.211 L393.058,106.614 C393.058,108.191 393.417,108.56 394.989,108.56 L400.297,108.56 C405.367,108.56 409.107,107.822 411.761,105.898 C416.226,102.643 418.279,96.73 418.279,89.244 C418.279,81.884 416.226,74.65 410.195,71.147 C407.662,69.695 404.402,69.211 399.331,69.211 L393.058,69.211 z M380.384,110.607 L380.384,109.03 L384.85,107.945 C386.179,107.59 386.66,107.105 386.66,105.898 L386.66,71.867 C386.66,70.658 386.179,70.178 384.85,69.819 L380.384,68.731 L380.384,67.157 L400.781,67.157 C406.331,67.157 410.314,67.882 413.574,69.33 C421.779,73.074 425.521,81.156 425.521,89.12 C425.521,96.853 422.623,104.085 415.263,107.945 C411.886,109.766 407.177,110.607 401.025,110.607 L380.384,110.607" fill="#FFFFFE"/>
    <path d="M204.689,109.03 L204.689,110.607 L189.364,110.607 L189.364,109.03 L193.22,108.07 C194.675,107.699 195.634,107.228 196.599,106.144 L209.876,89.489 L196.599,71.867 C195.757,70.658 194.675,70.059 193.342,69.695 L189.72,68.731 L189.72,67.157 L208.788,67.157 L208.788,68.731 L204.689,69.573 C203.238,69.819 203.6,70.418 204.322,71.387 L214.097,85.384 L214.338,85.384 L224.355,71.387 C225.08,70.418 225.324,70.059 223.994,69.695 L220.132,68.731 L220.132,67.157 L235.458,67.157 L235.458,68.731 L231.595,69.695 C230.151,70.059 229.184,70.537 228.216,71.623 L215.667,87.441 L229.664,105.898 C230.513,107.105 231.595,107.699 232.923,108.07 L236.546,109.03 L236.546,110.607 L217.478,110.607 L217.478,109.03 L221.58,108.191 C223.03,107.945 222.788,107.475 222.063,106.49 L211.443,91.529 L211.203,91.529 L200.463,106.389 C199.738,107.351 199.497,107.699 200.824,108.07 L204.689,109.03" fill="#FFFFFE"/>
    <path d="M158.976,46.712 C157.776,47.912 155.976,48.713 153.464,48.713 C151.275,48.713 149.246,48.023 147.872,46.65 C145.997,44.776 146.083,42.385 146.083,39.829 L146.083,27.745 L148.548,27.745 L148.548,40.727 C148.548,42.369 148.498,43.969 149.767,45.239 C150.646,46.117 152,46.592 153.559,46.592 C155.082,46.592 156.305,46.067 157.066,45.304 C158.478,43.893 158.388,42.354 158.388,38.636 L158.388,27.745 L160.816,27.745 L160.816,37.996 C160.816,41.892 160.974,44.715 158.976,46.712" fill="#FFFFFE"/>
    <path d="M180.845,48.326 L170.931,31.455 L170.993,48.326 L168.728,48.326 L168.728,27.744 L171.253,27.744 L181.205,44.708 L181.142,27.744 L183.408,27.744 L183.408,48.326 L180.845,48.326" fill="#FFFFFE"/>
    <path d="M191.988,27.745 L194.464,27.745 L194.464,48.324 L191.988,48.324 z" fill="#FFFFFE"/>
    <path d="M209.861,48.324 L207.026,48.324 L199.93,27.745 L202.511,27.745 L208.513,45.913 L214.695,27.745 L217.091,27.745 L209.861,48.324" fill="#FFFFFE"/>
    <path d="M222.692,48.324 L222.692,27.745 L233.882,27.745 L233.882,29.797 L225.119,29.797 L225.119,36.589 L233.345,36.589 L233.345,38.59 L225.119,38.59 L225.119,46.21 L234.126,46.21 L234.126,48.324 L222.692,48.324" fill="#FFFFFE"/>
    <path d="M252.019,48.324 L249.656,42.99 C248.191,39.709 247.523,39.373 244.539,39.373 L243.105,39.373 L243.105,48.324 L240.677,48.324 L240.677,27.745 L245.118,27.745 C247.864,27.745 249.935,27.727 251.554,29.346 C252.583,30.375 253.159,31.745 253.159,33.461 C253.159,34.892 252.743,36.081 251.882,36.998 C251.141,37.786 249.916,38.478 248.581,38.621 C249.306,38.663 249.905,39.053 250.292,39.443 C250.853,40.002 251.261,40.851 251.864,42.196 L254.597,48.324 L252.019,48.324 z M249.772,30.843 C248.593,29.662 247.062,29.717 245.384,29.717 L243.105,29.717 L243.105,37.402 L243.923,37.402 C246,37.402 248.238,37.51 249.65,36.098 C250.331,35.416 250.713,34.459 250.713,33.415 C250.713,32.258 250.257,31.329 249.772,30.843" fill="#FFFFFE"/>
    <path d="M278.636,27.745 L281.113,27.745 L281.113,48.324 L278.636,48.324 z" fill="#FFFFFE"/>
    <path d="M295.24,29.797 L295.24,48.324 L292.767,48.324 L292.767,29.797 L286.648,29.797 L286.648,27.745 L301.339,27.745 L301.339,29.797 L295.24,29.797" fill="#FFFFFE"/>
    <path d="M313.184,40.19 L313.184,48.324 L310.739,48.324 L310.739,40.19 L304.207,27.745 L307.037,27.745 L312.107,37.396 L317.034,27.744 L319.717,27.745 L313.184,40.19" fill="#FFFFFE"/>
    <path d="M342.809,48.713 C337.484,48.713 333.588,44.314 333.588,38.127 C333.588,31.772 337.441,27.355 343,27.355 C348.386,27.355 352.191,31.725 352.191,37.938 C352.191,44.309 348.379,48.713 342.809,48.713 z M342.801,29.458 C338.769,29.458 336.151,32.864 336.151,37.996 C336.151,43.11 339.066,46.592 342.934,46.592 C347.234,46.592 349.628,42.933 349.628,37.834 C349.628,32.813 346.802,29.458 342.801,29.458" fill="#FFFFFE"/>
    <path d="M361.414,29.797 L361.414,36.589 L369.371,36.589 L369.371,38.59 L361.414,38.59 L361.414,48.324 L358.957,48.324 L358.957,27.745 L369.886,27.745 L369.886,29.797 L361.414,29.797" fill="#FFFFFE"/>
    <path d="M259.585,32.766 C259.585,29.604 262.129,27.352 265.847,27.352 C269.611,27.352 271.416,29.295 271.6,29.496 L270.392,30.958 C269.931,30.603 268.284,29.393 266.009,29.393 C263.384,29.393 261.93,30.765 261.93,32.627 C261.93,33.529 262.3,34.177 262.893,34.71 C263.6,35.343 264.629,35.811 265.738,36.322 C267.119,36.956 269.009,37.669 270.277,38.984 C271.154,39.893 271.816,41.075 271.816,42.697 C271.816,46.12 269.441,48.727 265.169,48.727 C261.529,48.727 259.232,46.722 259.016,46.521 L260.15,44.852 C260.734,45.286 263.019,46.637 265.109,46.637 C268.206,46.637 269.364,44.942 269.364,42.897 C269.364,41.947 268.933,41.183 268.291,40.568 C267.331,39.643 265.878,39.024 264.486,38.388 C263.103,37.756 261.771,37.094 260.828,36.103 C260.206,35.451 259.585,34.384 259.585,32.766" fill="#FFFFFE"/>
    <path d="M70.447,55.648 C70.447,53.829 69.831,52.36 68.498,51.578 C67.663,51.087 66.533,50.927 65.138,50.927 L54.994,50.925 L54.994,71.407 L66.034,71.407 C68.58,71.407 70.076,71.98 70.206,74.263 L70.448,74.263 L70.447,55.648" fill="#FFFFFE"/>
    <path d="M71.864,55.648 C71.864,53.829 72.481,52.36 73.813,51.578 C74.65,51.087 75.781,50.927 77.175,50.927 L87.39,50.925 L87.39,71.407 L76.279,71.407 C73.734,71.407 72.238,71.98 72.107,74.263 L71.863,74.263 L71.864,55.648" fill="#FFFFFE"/>
    <path d="M89.526,52.44 C89.526,52.44 89.526,72.764 89.526,74.092 C88.236,74.092 73.826,74.092 73.826,74.092 L73.647,74.534 C73.374,75.21 72.884,75.835 71.172,75.835 C69.46,75.835 68.974,75.21 68.699,74.534 L68.519,74.092 C68.519,74.092 54.154,74.092 52.862,74.092 C52.862,72.764 52.862,52.44 52.862,52.44 L51.446,52.44 L51.446,53.099 L50.087,52.682 C49.93,52.147 49.441,51.754 48.856,51.754 C48.145,51.754 47.566,52.332 47.566,53.044 C47.566,53.757 48.145,54.334 48.856,54.334 C49.167,54.334 49.449,54.22 49.671,54.036 L51.446,54.581 L51.446,56.321 L50.112,56.082 C49.915,55.623 49.458,55.299 48.926,55.299 C48.215,55.299 47.637,55.877 47.637,56.589 C47.637,57.302 48.215,57.879 48.926,57.879 C49.294,57.879 49.624,57.723 49.859,57.476 L51.446,57.76 L51.446,59.535 L50.052,59.474 C49.827,59.098 49.42,58.844 48.95,58.844 C48.239,58.844 47.66,59.422 47.66,60.133 C47.66,60.846 48.239,61.424 48.95,61.424 C49.38,61.424 49.758,61.211 49.992,60.888 L51.446,60.952 L51.446,62.881 L50.022,62.932 C49.788,62.604 49.407,62.389 48.974,62.389 C48.263,62.389 47.684,62.966 47.684,63.678 C47.684,64.39 48.263,64.968 48.974,64.968 C49.44,64.968 49.845,64.718 50.072,64.347 L51.446,64.298 L51.446,66.075 L49.888,66.343 C49.653,66.092 49.321,65.933 48.95,65.933 C48.239,65.933 47.66,66.511 47.66,67.223 C47.66,67.936 48.239,68.513 48.95,68.513 C49.479,68.513 49.933,68.193 50.132,67.738 L51.446,67.512 L51.446,69.256 L49.743,69.776 C49.52,69.593 49.238,69.477 48.926,69.477 C48.215,69.477 47.637,70.055 47.637,70.768 C47.637,71.48 48.215,72.057 48.926,72.057 C49.512,72.057 50,71.665 50.158,71.13 L51.446,70.737 L51.446,72.424 L49.564,73.236 C49.361,73.102 49.118,73.022 48.856,73.022 C48.145,73.022 47.566,73.6 47.566,74.312 C47.566,75.024 48.145,75.602 48.856,75.602 C49.491,75.602 50.016,75.143 50.123,74.537 L51.446,73.967 L51.446,75.508 C51.446,75.508 66.897,75.508 67.647,75.508 C68.306,76.656 69.445,77.251 71.172,77.251 C72.901,77.251 74.04,76.656 74.698,75.508 C75.449,75.508 90.942,75.508 90.942,75.508 L90.942,52.44 L89.526,52.44" fill="#FFFFFE"/>
    <path d="M60.513,45.219 C57.238,45.219 54.585,45.728 54.585,46.356 C54.585,46.985 57.238,47.494 60.513,47.494 C63.788,47.494 66.442,46.985 66.442,46.356 C66.442,45.728 63.788,45.219 60.513,45.219" fill="#FFFFFE"/>
    <path d="M68.676,38.116 L65.254,40.521 L65.225,40.766 L66.038,41.131 C66.201,41.211 66.201,41.341 66.119,41.419 L63.968,43.233 L63.765,43.216 L62.243,40.971 C62.136,40.825 62.175,40.68 62.359,40.649 L63.38,40.482 L63.38,40.225 L60.73,36.48 L60.294,36.48 L57.644,40.225 L57.644,40.482 L58.667,40.649 C58.85,40.68 58.888,40.825 58.784,40.971 L57.259,43.216 L57.057,43.233 L55.048,41.419 C54.967,41.341 54.967,41.211 55.128,41.131 L55.942,40.766 L55.913,40.521 L52.348,38.116 L52.059,38.229 L54.151,44.625 C55.214,44.148 57.655,43.811 60.511,43.798 C63.371,43.811 65.81,44.148 66.873,44.625 L68.966,38.229 L68.676,38.116" fill="#FFFFFE"/>
    <path d="M71.147,88.107 C67.872,88.107 65.217,88.617 65.217,89.244 C65.217,89.873 67.872,90.382 71.147,90.382 C74.421,90.382 77.076,89.873 77.076,89.244 C77.076,88.617 74.421,88.107 71.147,88.107" fill="#FFFFFE"/>
    <path d="M79.31,81.004 L75.888,83.41 L75.859,83.654 L76.672,84.019 C76.833,84.1 76.834,84.228 76.753,84.307 L74.603,86.122 L74.398,86.103 L72.876,83.859 C72.771,83.713 72.808,83.568 72.993,83.537 L74.015,83.371 L74.015,83.113 L71.364,79.368 L70.929,79.368 L68.279,83.113 L68.279,83.371 L69.301,83.537 C69.484,83.568 69.522,83.713 69.418,83.859 L67.893,86.103 L67.689,86.122 L65.683,84.307 C65.6,84.228 65.601,84.1 65.763,84.019 L66.576,83.654 L66.546,83.41 L62.981,81.004 L62.692,81.117 L64.787,87.514 C65.849,87.035 68.289,86.699 71.146,86.686 C74.004,86.699 76.445,87.035 77.507,87.514 L79.6,81.117 L79.31,81.004" fill="#FFFFFE"/>
    <path d="M81.757,45.219 C78.48,45.219 75.826,45.728 75.826,46.356 C75.826,46.985 78.48,47.494 81.757,47.494 C85.03,47.494 87.683,46.985 87.683,46.356 C87.683,45.728 85.03,45.219 81.757,45.219" fill="#FFFFFE"/>
    <path d="M89.918,38.116 L86.497,40.521 L86.466,40.766 L87.28,41.131 C87.441,41.211 87.442,41.341 87.36,41.419 L85.21,43.233 L85.007,43.216 L83.484,40.971 C83.378,40.825 83.417,40.68 83.6,40.649 L84.622,40.482 L84.622,40.225 L81.971,36.48 L81.537,36.48 L78.886,40.225 L78.886,40.482 L79.909,40.649 C80.092,40.68 80.13,40.825 80.026,40.971 L78.503,43.216 L78.297,43.233 L76.29,41.395 C76.208,41.317 76.209,41.187 76.371,41.107 L77.184,40.766 L77.155,40.521 L73.588,38.116 L73.3,38.229 L75.393,44.625 C76.455,44.148 78.896,43.811 81.754,43.798 C84.613,43.811 87.051,44.148 88.114,44.625 L90.209,38.229 L89.918,38.116" fill="#FFFFFE"/>
    <path d="M57.392,56.392 C57.392,56.793 57.493,56.871 57.708,56.871 C58.097,56.871 58.49,56.442 58.49,55.642 C58.49,54.672 57.998,54.401 57.614,54.401 C57.509,54.401 57.451,54.415 57.419,54.433 C57.396,54.441 57.392,54.546 57.392,54.658 L57.392,56.392 z M57.614,54.175 C58.169,54.175 58.63,54.284 58.932,54.577 C59.144,54.78 59.32,55.114 59.32,55.502 C59.32,56.627 58.467,57.11 57.423,57.11 L56.259,57.11 L56.259,56.934 C56.588,56.907 56.625,56.875 56.625,56.388 L56.625,54.897 C56.625,54.41 56.588,54.378 56.294,54.352 L56.294,54.175 L57.614,54.175" fill="#04183B"/>
    <path d="M60.552,55.529 C60.552,56.347 60.859,56.943 61.302,56.943 C61.692,56.943 61.902,56.568 61.902,55.75 C61.902,54.844 61.578,54.342 61.189,54.342 C60.842,54.342 60.552,54.74 60.552,55.529 z M62.743,55.606 C62.743,56.573 62.083,57.178 61.217,57.178 C60.305,57.178 59.713,56.514 59.713,55.683 C59.713,54.952 60.201,54.107 61.28,54.107 C62.105,54.107 62.743,54.712 62.743,55.606" fill="#04183B"/>
    <path d="M66.73,54.175 L66.73,54.352 C66.385,54.383 66.368,54.401 66.382,54.875 L66.426,56.388 C66.441,56.889 66.451,56.902 66.775,56.934 L66.775,57.11 L65.363,57.11 L65.363,56.934 C65.701,56.902 65.713,56.889 65.708,56.388 L65.697,54.798 L65.677,54.798 L64.806,57.061 L64.563,57.061 L63.736,54.957 L63.726,54.957 L63.695,55.959 C63.682,56.347 63.687,56.563 63.705,56.703 C63.722,56.871 63.822,56.911 64.115,56.934 L64.115,57.11 L63,57.11 L63,56.934 C63.217,56.915 63.302,56.871 63.33,56.703 C63.353,56.563 63.379,56.324 63.402,55.913 L63.451,55.001 C63.484,54.433 63.447,54.383 63.091,54.352 L63.091,54.175 L64.152,54.175 L64.942,55.963 L65.632,54.175 L66.73,54.175" fill="#04183B"/>
    <path d="M68.197,56.388 C68.197,56.875 68.232,56.907 68.543,56.934 L68.543,57.11 L67.081,57.11 L67.081,56.934 C67.392,56.907 67.429,56.875 67.429,56.388 L67.429,54.897 C67.429,54.41 67.392,54.378 67.081,54.352 L67.081,54.175 L68.543,54.175 L68.543,54.352 C68.232,54.378 68.197,54.41 68.197,54.897 L68.197,56.388" fill="#04183B"/>
    <path d="M60.925,62.56 L60.538,62.56 L58.868,60.428 L58.857,60.428 L58.857,61.259 C58.857,61.733 58.875,61.981 58.893,62.121 C58.915,62.28 59.038,62.338 59.335,62.352 L59.335,62.528 L58.212,62.528 L58.212,62.352 C58.41,62.342 58.527,62.28 58.55,62.121 C58.568,61.981 58.585,61.733 58.585,61.259 L58.585,60.428 C58.585,60.094 58.577,60.035 58.486,59.909 C58.419,59.814 58.307,59.783 58.144,59.769 L58.144,59.593 L59.142,59.593 L60.644,61.467 L60.655,61.467 L60.655,60.862 C60.655,60.387 60.636,60.139 60.618,59.999 C60.596,59.842 60.472,59.783 60.175,59.769 L60.175,59.593 L61.326,59.593 L61.326,59.769 C61.101,59.778 60.984,59.842 60.96,59.999 C60.943,60.139 60.925,60.387 60.925,60.862 L60.925,62.56" fill="#04183B"/>
    <path d="M62.754,62.56 C62.442,61.747 62.017,60.631 61.855,60.207 C61.706,59.819 61.617,59.796 61.4,59.769 L61.4,59.593 L62.857,59.593 L62.857,59.769 L62.705,59.787 C62.538,59.805 62.538,59.846 62.587,60.004 C62.667,60.256 63.025,61.146 63.192,61.589 C63.331,61.205 63.622,60.343 63.693,60.13 C63.788,59.854 63.76,59.805 63.558,59.783 L63.421,59.769 L63.421,59.593 L64.516,59.593 L64.516,59.769 C64.257,59.801 64.195,59.824 64.017,60.234 C63.99,60.297 63.439,61.638 63.101,62.56 L62.754,62.56" fill="#04183B"/>
    <path d="M64.79,61.598 C64.884,61.86 65.151,62.361 65.595,62.361 C65.83,62.361 66.009,62.207 66.009,61.914 C66.009,61.647 65.833,61.498 65.558,61.372 L65.49,61.34 C65.121,61.168 64.701,60.934 64.701,60.451 C64.701,59.941 65.07,59.525 65.779,59.525 C65.918,59.525 66.063,59.543 66.195,59.58 C66.297,59.606 66.371,59.624 66.429,59.643 C66.447,59.819 66.478,60.04 66.529,60.347 L66.33,60.378 C66.23,60.081 66.073,59.76 65.716,59.76 C65.485,59.76 65.323,59.936 65.323,60.153 C65.323,60.378 65.499,60.509 65.788,60.641 L65.886,60.686 C66.304,60.875 66.659,61.106 66.659,61.634 C66.659,62.189 66.212,62.595 65.513,62.595 C65.331,62.595 65.146,62.56 65.025,62.519 C64.89,62.473 64.794,62.437 64.742,62.41 C64.705,62.202 64.646,61.959 64.592,61.657 L64.79,61.598" fill="#04183B"/>
    <path d="M58.917,67.223 C58.917,67.71 58.953,67.742 59.265,67.769 L59.265,67.945 L57.802,67.945 L57.802,67.769 C58.113,67.742 58.15,67.71 58.15,67.223 L58.15,65.733 C58.15,65.246 58.113,65.214 57.802,65.187 L57.802,65.011 L59.265,65.011 L59.265,65.187 C58.953,65.214 58.917,65.246 58.917,65.733 L58.917,67.223" fill="#04183B"/>
    <path d="M60.705,67.282 C60.705,67.517 60.713,67.629 60.794,67.67 C60.868,67.706 60.971,67.71 61.111,67.71 C61.255,67.71 61.451,67.698 61.544,67.579 C61.618,67.494 61.693,67.372 61.766,67.133 L61.96,67.164 C61.934,67.336 61.838,67.806 61.797,67.945 L59.559,67.945 L59.559,67.769 C59.901,67.742 59.938,67.71 59.938,67.223 L59.938,65.733 C59.938,65.246 59.901,65.214 59.599,65.187 L59.599,65.011 L61.067,65.011 L61.067,65.187 C60.742,65.214 60.705,65.246 60.705,65.733 L60.705,67.282" fill="#04183B"/>
    <path d="M63.225,67.282 C63.225,67.517 63.234,67.629 63.314,67.67 C63.386,67.706 63.49,67.71 63.63,67.71 C63.776,67.71 63.97,67.698 64.064,67.579 C64.136,67.494 64.213,67.372 64.285,67.133 L64.48,67.164 C64.453,67.336 64.357,67.806 64.317,67.945 L62.078,67.945 L62.078,67.769 C62.421,67.742 62.456,67.71 62.456,67.223 L62.456,65.733 C62.456,65.246 62.421,65.214 62.118,65.187 L62.118,65.011 L63.585,65.011 L63.585,65.187 C63.259,65.214 63.225,65.246 63.225,65.733 L63.225,67.282" fill="#04183B"/>
    <path d="M65.382,67.977 C65.07,67.164 64.646,66.049 64.484,65.624 C64.335,65.237 64.244,65.214 64.027,65.187 L64.027,65.011 L65.486,65.011 L65.486,65.187 L65.331,65.205 C65.165,65.223 65.165,65.263 65.216,65.422 C65.296,65.674 65.654,66.564 65.82,67.006 C65.959,66.622 66.249,65.761 66.322,65.548 C66.418,65.272 66.39,65.223 66.185,65.201 L66.051,65.187 L66.051,65.011 L67.143,65.011 L67.143,65.187 C66.885,65.218 66.823,65.241 66.646,65.652 C66.618,65.715 66.068,67.056 65.73,67.977 L65.382,67.977" fill="#04183B"/>
    <path d="M77.509,54.175 L77.509,54.352 C77.165,54.383 77.147,54.401 77.162,54.875 L77.206,56.388 C77.22,56.889 77.23,56.902 77.554,56.934 L77.554,57.11 L76.142,57.11 L76.142,56.934 C76.48,56.902 76.493,56.889 76.488,56.388 L76.475,54.798 L76.456,54.798 L75.585,57.061 L75.342,57.061 L74.517,54.957 L74.507,54.957 L74.475,55.959 C74.462,56.347 74.466,56.563 74.484,56.703 C74.501,56.871 74.6,56.911 74.894,56.934 L74.894,57.11 L73.78,57.11 L73.78,56.934 C73.997,56.915 74.081,56.871 74.109,56.703 C74.132,56.563 74.159,56.324 74.181,55.913 L74.23,55.001 C74.263,54.433 74.228,54.383 73.871,54.352 L73.871,54.175 L74.931,54.175 L75.721,55.963 L76.413,54.175 L77.509,54.175" fill="#04183B"/>
    <path d="M78.975,56.388 C78.975,56.875 79.011,56.907 79.323,56.934 L79.323,57.11 L77.86,57.11 L77.86,56.934 C78.171,56.907 78.209,56.875 78.209,56.388 L78.209,54.897 C78.209,54.41 78.171,54.378 77.86,54.352 L77.86,54.175 L79.323,54.175 L79.323,54.352 C79.011,54.378 78.975,54.41 78.975,54.897 L78.975,56.388" fill="#04183B"/>
    <path d="M82.335,57.142 L81.947,57.142 L80.276,55.01 L80.267,55.01 L80.267,55.841 C80.267,56.315 80.285,56.563 80.304,56.703 C80.327,56.862 80.448,56.92 80.747,56.934 L80.747,57.11 L79.622,57.11 L79.622,56.934 C79.82,56.924 79.938,56.862 79.959,56.703 C79.978,56.563 79.997,56.315 79.997,55.841 L79.997,55.01 C79.997,54.677 79.988,54.618 79.897,54.491 C79.83,54.396 79.716,54.365 79.555,54.352 L79.555,54.175 L80.551,54.175 L82.056,56.049 L82.063,56.049 L82.063,55.444 C82.063,54.97 82.046,54.722 82.029,54.582 C82.004,54.424 81.884,54.365 81.585,54.352 L81.585,54.175 L82.738,54.175 L82.738,54.352 C82.511,54.36 82.393,54.424 82.372,54.582 C82.355,54.722 82.335,54.97 82.335,55.444 L82.335,57.142" fill="#04183B"/>
    <path d="M83.65,55.954 L84.226,55.954 L83.942,55.091 L83.929,55.091 L83.65,55.954 z M84.221,56.934 L84.357,56.915 C84.526,56.894 84.534,56.848 84.475,56.685 L84.313,56.225 L83.572,56.225 L83.437,56.658 C83.378,56.853 83.378,56.898 83.584,56.92 L83.716,56.934 L83.716,57.11 L82.664,57.11 L82.664,56.934 C82.896,56.902 82.963,56.884 83.113,56.505 L84.015,54.171 L84.326,54.107 L84.634,54.961 C84.827,55.498 85.021,56.031 85.192,56.492 C85.337,56.884 85.418,56.907 85.64,56.934 L85.64,57.11 L84.221,57.11 L84.221,56.934" fill="#04183B"/>
    <path d="M77.474,61.805 C77.474,62.292 77.509,62.324 77.888,62.352 L77.888,62.528 L76.309,62.528 L76.309,62.352 C76.669,62.324 76.706,62.292 76.706,61.805 L76.706,59.828 L76.629,59.828 C76.327,59.828 76.205,59.882 76.132,59.964 C76.08,60.031 76.023,60.148 75.966,60.401 L75.776,60.401 C75.794,60.022 75.822,59.71 75.83,59.48 L75.968,59.48 C76.038,59.583 76.083,59.593 76.205,59.593 L78.005,59.593 C78.124,59.593 78.146,59.565 78.217,59.48 L78.359,59.48 C78.363,59.67 78.385,60.054 78.408,60.387 L78.209,60.401 C78.142,60.13 78.092,60.013 78.025,59.936 C77.947,59.854 77.797,59.828 77.581,59.828 L77.474,59.828 L77.474,61.805" fill="#04183B"/>
    <path d="M79.837,61.805 C79.837,62.292 79.874,62.324 80.184,62.352 L80.184,62.528 L78.721,62.528 L78.721,62.352 C79.034,62.324 79.07,62.292 79.07,61.805 L79.07,60.315 C79.07,59.828 79.034,59.796 78.721,59.769 L78.721,59.593 L80.184,59.593 L80.184,59.769 C79.874,59.796 79.837,59.828 79.837,60.315 L79.837,61.805" fill="#04183B"/>
    <path d="M81.401,60.947 C81.401,61.765 81.708,62.361 82.151,62.361 C82.54,62.361 82.751,61.986 82.751,61.168 C82.751,60.261 82.426,59.76 82.038,59.76 C81.691,59.76 81.401,60.157 81.401,60.947 z M83.591,61.024 C83.591,61.991 82.932,62.595 82.066,62.595 C81.154,62.595 80.563,61.931 80.563,61.101 C80.563,60.37 81.048,59.525 82.128,59.525 C82.955,59.525 83.591,60.13 83.591,61.024" fill="#04183B"/>
    <path d="M78.806,65.011 L78.806,65.187 C78.462,65.218 78.445,65.237 78.458,65.711 L78.504,67.223 C78.517,67.724 78.526,67.738 78.85,67.769 L78.85,67.945 L77.438,67.945 L77.438,67.769 C77.776,67.738 77.79,67.724 77.785,67.223 L77.772,65.633 L77.753,65.633 L76.882,67.896 L76.638,67.896 L75.813,65.792 L75.802,65.792 L75.771,66.794 C75.757,67.182 75.763,67.399 75.781,67.539 C75.798,67.706 75.897,67.747 76.192,67.769 L76.192,67.945 L75.076,67.945 L75.076,67.769 C75.292,67.751 75.379,67.706 75.406,67.539 C75.429,67.399 75.456,67.16 75.478,66.748 L75.527,65.837 C75.559,65.268 75.525,65.218 75.167,65.187 L75.167,65.011 L76.228,65.011 L77.018,66.798 L77.708,65.011 L78.806,65.011" fill="#04183B"/>
    <path d="M79.504,65.733 C79.504,65.246 79.467,65.214 79.168,65.187 L79.168,65.011 L81.306,65.011 C81.312,65.088 81.333,65.417 81.356,65.755 L81.158,65.769 C81.113,65.548 81.062,65.422 80.99,65.35 C80.918,65.272 80.768,65.246 80.53,65.246 L80.453,65.246 C80.283,65.246 80.272,65.246 80.272,65.403 L80.272,66.274 L80.497,66.274 C80.885,66.274 80.9,66.247 80.947,65.905 L81.143,65.905 L81.143,66.97 L80.947,66.97 C80.9,66.573 80.885,66.545 80.497,66.545 L80.272,66.545 L80.272,67.282 C80.272,67.517 80.283,67.629 80.363,67.67 C80.435,67.706 80.539,67.71 80.679,67.71 C80.86,67.71 81.059,67.684 81.158,67.576 C81.234,67.494 81.312,67.327 81.379,67.11 L81.577,67.142 C81.556,67.363 81.459,67.823 81.419,67.945 L79.122,67.945 L79.122,67.769 C79.467,67.742 79.504,67.71 79.504,67.223 L79.504,65.733" fill="#04183B"/>
    <path d="M82.588,66.789 L83.167,66.789 L82.882,65.927 L82.868,65.927 L82.588,66.789 z M83.163,67.769 L83.297,67.751 C83.463,67.729 83.474,67.684 83.415,67.52 L83.251,67.061 L82.513,67.061 L82.376,67.494 C82.317,67.688 82.317,67.733 82.525,67.756 L82.655,67.769 L82.655,67.945 L81.605,67.945 L81.605,67.769 C81.833,67.738 81.904,67.719 82.051,67.34 L82.955,65.006 L83.267,64.943 L83.572,65.796 C83.767,66.334 83.96,66.867 84.132,67.327 C84.279,67.719 84.359,67.742 84.58,67.769 L84.58,67.945 L83.163,67.945 L83.163,67.769" fill="#04183B"/>
    <path d="M67.076,104.269 C67.076,104.922 66.546,105.449 65.896,105.449 C65.243,105.449 64.713,104.922 64.713,104.269 C64.713,103.617 65.243,103.088 65.896,103.088 C66.546,103.088 67.076,103.617 67.076,104.269" fill="#FFFFFE"/>
    <path d="M79.05,106.233 C79.05,106.886 78.521,107.414 77.869,107.414 C77.217,107.414 76.688,106.886 76.688,106.233 C76.688,105.582 77.217,105.054 77.869,105.054 C78.521,105.054 79.05,105.582 79.05,106.233" fill="#FFFFFE"/>
    <path d="M33.165,39.879 L33.165,39.879" fill="#FFFFFE"/>
    <path d="M82.78,18.539 L82.78,18.539" fill="#FFFFFE"/>
    <path d="M101.833,42.001 L101.833,42.001" fill="#FFFFFE"/>
    <path d="M111.016,80.402 L111.016,80.402" fill="#FFFFFE"/>
    <path d="M72.283,20.9 C72.283,21.553 71.754,22.081 71.1,22.081 C70.448,22.081 69.921,21.553 69.921,20.9 C69.921,20.248 70.448,19.72 71.1,19.72 C71.754,19.72 72.283,20.248 72.283,20.9" fill="#FFFFFE"/>
    <path d="M100.382,31.953 C100.353,32.604 99.802,33.11 99.151,33.082 C98.501,33.056 97.994,32.504 98.021,31.853 C98.048,31.202 98.6,30.697 99.251,30.725 C99.901,30.752 100.409,31.302 100.382,31.953" fill="#FFFFFE"/>
    <path d="M41.162,82.638 C41.616,83.291 41.845,83.989 41.844,84.713 C41.842,85.538 41.566,86.207 40.09,87.229 L35.827,90.268 L35.042,89.139 C35.042,89.139 39.41,86.029 39.481,85.979 C40.234,85.459 40.555,85.078 40.556,84.481 C40.557,84.103 40.418,83.691 40.145,83.298 C39.718,82.684 39.17,82.486 38.687,82.486 C38.249,82.485 37.776,82.793 36.937,83.379 L32.928,86.098 L32.158,84.99 L35.973,82.405 C37.034,81.66 37.88,81.148 38.665,81.149 C39.812,81.151 40.649,81.897 41.162,82.638" fill="#FFFFFE"/>
    <path d="M27.538,74.313 L35.65,71.469 L36.098,72.698 L31.457,78.367 L37.322,76.048 L37.759,77.244 L29.74,80.324 L29.292,79.096 L33.956,73.419 L27.974,75.512 L27.538,74.313" fill="#FFFFFE"/>
    <path d="M26.324,67.855 L34.815,66.595 L35.016,67.955 L26.525,69.214 L26.324,67.855" fill="#FFFFFE"/>
    <path d="M26.072,57.618 L26.105,56.193 L34.579,59.637 L34.519,61.05 L25.818,63.645 L25.827,62.219 L32.882,60.241 L26.072,57.618" fill="#FFFFFE"/>
    <path d="M32.294,41.015 C32.797,40.1 33.156,39.753 33.688,39.755 C33.885,39.755 34.134,39.805 34.384,39.942 C34.705,40.121 34.952,40.417 35.044,40.737 C35.079,40.86 35.094,40.983 35.093,41.107 C35.089,41.617 34.805,42.129 34.507,42.665 L34.331,42.984 L31.913,41.685 L32.294,41.015 z M33.82,38.414 C32.607,38.416 32.046,39.11 31.272,40.51 L30.265,42.316 L37.826,46.419 L38.479,45.238 L35.336,43.523 L35.52,43.184 C36.049,42.227 36.231,42.082 37.58,42.196 L40.029,42.413 L40.729,41.144 L37.907,40.904 C37.339,40.851 36.892,40.809 36.53,40.915 C36.409,40.95 36.264,41.023 36.124,41.123 C36.156,40.969 36.215,40.82 36.216,40.664 C36.218,40.422 36.183,40.183 36.111,39.965 C35.946,39.461 35.587,39.052 35.043,38.751 C34.637,38.527 34.231,38.413 33.82,38.414" fill="#FFFFFE"/>
    <path d="M43.215,26.283 L44.308,25.45 L49.516,32.272 L48.424,33.106 L43.215,26.283" fill="#FFFFFE"/>
    <path d="M47.928,22.937 L53.481,20.046 L54.023,21.088 L51.862,22.213 L55.285,28.786 L54.066,29.42 L50.643,22.848 L48.47,23.979 L47.928,22.937" fill="#FFFFFE"/>
    <path d="M61.78,17.436 L63.228,17.032 L62.063,22.774 L63.005,26.034 L61.697,26.412 L60.775,23.177 L56.699,18.923 L58.11,18.515 L61.042,21.57 L61.78,17.436" fill="#FFFFFE"/>
    <path d="M87.971,29.17 L92.33,21.775 L96.431,24.19 L95.835,25.203 L92.905,23.477 L91.701,25.523 L94.456,27.146 L93.874,28.137 L91.118,26.513 L89.146,29.862 L87.971,29.17" fill="#FFFFFE"/>
    <path d="M110.026,48.291 L113.151,44.551 L113.638,46.032 L111.312,48.694 L114.768,49.471 L115.226,50.866 L110.497,49.721 L107.138,53.747 L106.66,52.291 L109.195,49.336 L105.405,48.472 L104.942,47.064 L110.026,48.291" fill="#FFFFFE"/>
    <path d="M107.573,56.725 L116.129,56.027 L116.517,60.772 L115.345,60.868 L115.07,57.48 L112.703,57.673 L112.962,60.862 L111.818,60.955 L111.557,57.767 L107.684,58.082 L107.573,56.725" fill="#FFFFFE"/>
    <path d="M112.033,70.919 C110.36,70.919 108.408,70.008 108.408,68.322 C108.408,67.712 108.619,66.891 109.375,66.343 C109.884,65.973 110.546,65.776 111.288,65.776 C112.14,65.776 113.675,66.016 114.481,67.127 C114.759,67.509 114.9,67.953 114.897,68.428 C114.897,69.086 114.629,69.867 113.925,70.377 C113.426,70.739 112.769,70.919 112.033,70.919 z M111.356,64.378 C110.364,64.378 109.452,64.645 108.731,65.169 C107.437,66.108 107.201,67.457 107.201,68.246 C107.201,71.147 109.926,72.308 111.975,72.308 C112.958,72.31 113.859,72.041 114.568,71.527 C116.015,70.481 116.092,68.907 116.092,68.4 C116.092,65.869 113.766,64.378 111.356,64.378" fill="#FFFFFE"/>
    <path d="M105.038,42.798 C104.268,42.798 103.572,42.475 103.092,41.717 C102.846,41.332 102.73,40.916 102.726,40.495 C102.721,39.525 103.337,38.529 104.462,37.813 C105.208,37.341 105.939,37.109 106.593,37.111 C107.421,37.111 108.095,37.476 108.543,38.185 C108.809,38.602 108.931,39.047 108.931,39.492 C108.931,40.44 108.33,41.369 107.243,42.058 C106.481,42.541 105.712,42.798 105.038,42.798 z M106.375,35.805 C105.507,35.805 104.583,36.08 103.692,36.644 C102.043,37.691 101.442,39.19 101.442,40.283 C101.442,40.991 101.636,41.686 102.042,42.324 C102.956,43.769 104.331,44.122 105.259,44.118 C106.144,44.113 107.08,43.82 107.96,43.26 C109.022,42.586 110.205,41.335 110.205,39.642 C110.205,38.938 110.004,38.246 109.597,37.604 C108.846,36.42 107.668,35.805 106.375,35.805" fill="#FFFFFE"/>
    <path d="M82.515,25.781 C81.893,25.781 80.996,25.477 80.493,24.561 C80.251,24.117 80.142,23.579 80.142,23.021 C80.142,21.484 81.167,19.327 83.038,19.327 C84.087,19.327 85.408,20.109 85.408,22.05 C85.408,23.287 84.535,25.781 82.515,25.781 z M82.956,18.125 C81.167,18.125 79.609,19.329 78.981,21.47 C78.842,21.945 78.754,22.416 78.754,22.872 C78.754,23.729 78.898,24.408 79.249,25.049 C80.042,26.502 81.497,26.997 82.6,26.997 C83.225,26.997 83.826,26.854 84.378,26.553 C85.826,25.761 86.783,23.923 86.783,22.164 C86.783,21.401 86.634,20.681 86.294,20.065 C85.597,18.799 84.308,18.125 82.956,18.125" fill="#FFFFFE"/>
    <path d="M35.412,49.255 L36.565,49.581 L35.263,54.295 L26.956,52.019 L28.375,47.248 L29.504,47.568 L28.462,51.004 L30.753,51.633 L31.636,48.511 L32.741,48.825 L31.86,51.937 L34.451,52.648 L35.412,49.255" fill="#FFFFFE"/>
    <path d="M37.59,31.322 C38.783,29.985 40.002,30.077 40.002,30.077 L40.21,31.21 C40.21,31.21 39.27,31.24 38.534,32.065 C38.213,32.424 38.052,32.799 38.052,33.137 C38.052,33.415 38.16,33.658 38.378,33.853 C38.974,34.382 39.989,33.793 40.625,33.538 C41.115,33.336 41.81,33.053 42.504,33.053 C43.023,33.053 43.559,33.201 44.048,33.638 C44.62,34.148 44.906,34.789 44.906,35.462 C44.906,36.191 44.623,36.839 44.053,37.477 C42.958,38.704 41.486,38.837 41.486,38.837 L41.193,37.689 C42.061,37.489 42.717,37.155 43.116,36.708 C43.429,36.358 43.583,35.965 43.583,35.62 C43.583,35.296 43.448,34.995 43.182,34.757 C42.968,34.566 42.706,34.497 42.423,34.503 C41.871,34.503 41.211,34.819 40.665,35.045 C39.623,35.476 38.522,35.823 37.538,34.944 C37.037,34.497 36.771,33.933 36.771,33.309 C36.771,32.648 37.032,31.946 37.59,31.322" fill="#FFFFFE"/>
    <path d="M110.36,80.576 C109.974,80.577 109.317,80.353 109.068,79.715 C109.005,79.552 108.98,79.387 108.981,79.221 C108.985,78.75 109.208,78.262 109.438,77.749 L109.583,77.418 L112.058,78.53 L111.784,79.192 C111.322,80.241 111.022,80.574 110.36,80.576 z M105.292,75.486 L108.538,76.954 L108.376,77.319 C107.934,78.318 107.766,78.48 106.413,78.486 L103.955,78.488 L103.371,79.812 L106.202,79.804 C106.776,79.805 107.221,79.805 107.572,79.67 C107.684,79.627 107.813,79.555 107.934,79.459 C107.925,79.531 107.901,79.603 107.901,79.677 C107.897,79.992 107.955,80.305 108.076,80.578 C108.462,81.485 109.518,81.93 110.292,81.928 C111.659,81.926 112.182,81.109 112.845,79.605 C112.869,79.55 113.642,77.766 113.642,77.766 L105.838,74.251 L105.292,75.486" fill="#FFFFFE"/>
    <path d="M103.831,90.068 C103.15,90.068 102.509,89.806 101.842,89.273 C101.167,88.734 100.451,87.894 100.451,86.82 C100.451,86.076 100.855,85.364 101.478,84.584 L102.046,83.873 L106.949,87.785 L106.573,88.254 C105.664,89.394 105.042,90.068 103.831,90.068 z M100.772,83.606 C99.882,84.721 99.206,85.717 99.206,87.004 C99.206,88.096 99.703,89.34 100.958,90.342 C101.791,91.006 102.732,91.366 103.702,91.366 C104.896,91.366 105.853,91.008 107.341,89.144 L108.697,87.438 L101.988,82.083 L100.772,83.606" fill="#FFFFFE"/>
    <path d="M99.974,99.935 C91.985,102.76 84.529,102.566 78.169,101.146 C78.376,98.305 79.551,95.269 81.35,94.705 C95.359,90.359 105.562,77.299 105.562,61.904 C105.562,42.97 90.128,27.566 71.159,27.566 C52.189,27.566 36.756,42.97 36.756,61.904 C36.756,72.437 41.676,82.443 49.958,88.932 C47.991,89.796 46.314,91.193 45.101,92.933 C44.473,92.506 43.868,92.062 43.308,91.602 L42.995,91.916 C43.37,92.369 43.95,92.966 44.648,93.635 C43.629,95.351 43.038,97.348 43.038,99.482 C43.038,99.814 43.061,100.143 43.088,100.467 C30.763,91.484 23.44,77.206 23.44,61.904 C23.44,35.594 44.847,14.189 71.159,14.189 C97.471,14.189 118.878,35.594 118.878,61.904 C118.878,76.975 111.988,90.82 99.974,99.935 z M72.29,111.197 C65.697,111.197 57.468,108.957 51.814,105.621 C50.101,104.61 48.059,102.73 48.059,99.518 C48.059,98.65 48.229,97.822 48.529,97.061 C50.64,98.806 52.822,100.441 54.189,101.19 C54.504,101.363 54.687,101.447 55.052,101.447 C55.932,101.447 56.642,100.732 56.642,99.851 C56.642,99.177 56.277,98.63 55.673,98.366 C54.504,97.854 52.057,96.844 49.421,95.477 C50.64,93.869 52.56,92.824 54.722,92.824 C55.71,92.824 56.663,93.036 57.55,93.455 L59.357,94.508 C65.103,98.018 79.885,107.017 97.734,102.072 C90.96,108.185 82.615,111.197 72.29,111.197 z M77.942,115.215 C76.129,115.215 74.642,116.498 74.642,118.467 C74.642,120.393 76.15,121.719 77.942,121.719 C78.214,121.719 78.475,121.672 78.728,121.607 C78.349,124.334 75.173,127.386 71.077,128.758 C67.013,127.396 63.838,124.322 63.419,121.609 C63.669,121.674 63.929,121.719 64.201,121.719 C66.155,121.719 67.5,120.35 67.5,118.467 C67.5,116.671 66.088,115.262 64.271,115.222 C64.826,114.207 65.359,113.129 65.751,111.972 C68.004,112.363 70.225,112.578 72.29,112.578 C73.984,112.578 75.628,112.486 77.234,112.323 C77.447,113.254 77.763,114.226 78.134,115.23 C78.07,115.227 78.007,115.215 77.942,115.215 z M54.618,89.328 C58.009,89.328 61.184,91.068 63.044,93.855 C61.415,93.441 59.814,92.904 58.254,92.238 L58.248,92.248 L58.197,92.219 C57.105,91.705 55.938,91.443 54.722,91.443 C52.019,91.443 49.627,92.769 48.151,94.796 C47.529,94.451 46.908,94.089 46.298,93.71 C48.127,91.066 51.172,89.328 54.618,89.328 z M68.046,96.098 C67.626,96.41 67.29,96.783 67.05,97.193 C65.806,96.59 64.243,95.811 63.22,95.238 C64.667,95.558 66.558,95.965 68.046,96.098 z M78.492,95.449 C77.503,96.859 76.915,98.819 76.739,100.803 C73.621,100 70.79,98.92 68.323,97.794 C68.792,96.886 70.135,96.242 71.159,96.242 C73.675,96.242 76.126,95.965 78.492,95.449 z M71.159,94.862 C69.052,94.862 66.978,94.66 64.945,94.271 C62.982,90.424 58.96,87.948 54.618,87.948 C53.55,87.948 52.521,88.103 51.539,88.375 C43.19,82.171 38.21,72.305 38.21,61.904 C38.21,43.731 52.991,28.947 71.159,28.947 C89.327,28.947 104.109,43.731 104.109,61.904 C104.109,80.077 89.327,94.862 71.159,94.862 z M54.618,109.635 C49.034,109.635 44.493,105.081 44.493,99.482 C44.493,97.728 44.939,96.077 45.723,94.637 C46.244,95.109 46.801,95.601 47.379,96.096 C46.888,97.137 46.604,98.293 46.604,99.518 C46.604,102.562 48.141,105.078 51.047,106.793 C52.716,107.777 54.605,108.666 56.605,109.439 C55.956,109.568 55.292,109.635 54.618,109.635 z M120.333,61.904 C120.333,34.833 98.272,12.809 71.159,12.809 C44.045,12.809 21.986,34.833 21.986,61.904 C21.986,78.145 30.006,93.283 43.442,102.456 C44.765,107.377 49.266,111.016 54.618,111.016 C56.064,111.016 57.467,110.742 58.8,110.226 C60.6,110.82 62.458,111.312 64.313,111.694 C63.79,113.185 63.029,114.599 62.302,115.821 C62.302,115.821 62.318,115.818 62.342,115.812 C62.33,115.822 62.314,115.828 62.3,115.838 L63.326,116.863 C63.585,116.719 63.882,116.631 64.201,116.631 C65.212,116.631 66.037,117.454 66.037,118.467 C66.037,119.478 65.212,120.303 64.201,120.303 C63.317,120.303 62.541,119.736 62.134,119.131 C62.134,119.131 61.896,119.956 61.896,121.045 C61.888,124.572 65.738,128.6 71.077,130.299 C76.412,128.639 80.26,124.58 80.259,121.051 C80.259,119.836 80.019,119.131 80.019,119.131 C79.609,119.624 78.945,120.303 77.942,120.303 C76.931,120.303 76.106,119.478 76.106,118.467 C76.106,117.454 76.931,116.631 77.942,116.631 C78.296,116.631 78.626,116.736 78.908,116.912 L79.9,115.918 C79.922,115.924 79.938,115.928 79.938,115.928 C79.376,114.583 78.966,113.348 78.687,112.161 C87.529,110.971 94.988,107.228 100.918,100.992 L100.916,100.986 C113.254,91.609 120.333,77.383 120.333,61.904" fill="#FFFFFE"/>
  </g>
</svg>
